<svg xmlns="http://www.w3.org/2000/svg" viewBox="0 0 400 220" width="400" height="220">
  <rect width="400" height="220" fill="#050505"/>
  <line x1="0" y1="0" x2="400" y2="0" stroke="#ff2233" stroke-width="2"/>
  <line x1="0" y1="220" x2="400" y2="220" stroke="#ff2233" stroke-width="2"/>
  <g stroke="rgba(255,34,51,0.06)" stroke-width="1">
    <line x1="0" y1="44" x2="400" y2="44"/><line x1="0" y1="88" x2="400" y2="88"/>
    <line x1="0" y1="132" x2="400" y2="132"/><line x1="0" y1="176" x2="400" y2="176"/>
    <line x1="80" y1="0" x2="80" y2="220"/><line x1="160" y1="0" x2="160" y2="220"/>
    <line x1="240" y1="0" x2="240" y2="220"/><line x1="320" y1="0" x2="320" y2="220"/>
  </g>
  <!-- Copo de nieve central -->
  <g stroke="#4488ff" stroke-width="2.5" stroke-linecap="round">
    <line x1="200" y1="55" x2="200" y2="155"/>
    <line x1="146" y1="83" x2="254" y2="127"/>
    <line x1="146" y1="127" x2="254" y2="83"/>
    <!-- Ramas -->
    <line x1="200" y1="78" x2="185" y2="63"/><line x1="200" y1="78" x2="215" y2="63"/>
    <line x1="200" y1="132" x2="185" y2="147"/><line x1="200" y1="132" x2="215" y2="147"/>
    <line x1="163" y1="97" x2="148" y2="87"/><line x1="163" y1="97" x2="158" y2="112"/>
    <line x1="237" y1="113" x2="252" y2="123"/><line x1="237" y1="113" x2="242" y2="98"/>
    <line x1="163" y1="113" x2="148" y2="123"/><line x1="163" y1="113" x2="158" y2="98"/>
    <line x1="237" y1="97" x2="252" y2="87"/><line x1="237" y1="97" x2="242" y2="112"/>
  </g>
  <circle cx="200" cy="105" r="6" fill="#88aaff"/>
  <!-- Copos pequeños -->
  <g stroke="#4488ff" stroke-width="1.2" opacity="0.5">
    <line x1="80" y1="40" x2="80" y2="60"/><line x1="70" y1="50" x2="90" y2="50"/>
    <line x1="320" y1="60" x2="320" y2="80"/><line x1="310" y1="70" x2="330" y2="70"/>
    <line x1="340" y1="150" x2="340" y2="170"/><line x1="330" y1="160" x2="350" y2="160"/>
    <line x1="60" y1="160" x2="60" y2="180"/><line x1="50" y1="170" x2="70" y2="170"/>
  </g>
  <text x="200" y="205" text-anchor="middle" font-family="monospace" font-size="11" fill="#4488ff" letter-spacing="4">INVIERNO</text>
</svg>
