<svg xmlns="http://www.w3.org/2000/svg" viewBox="0 0 400 220" width="400" height="220">
  <rect width="400" height="220" fill="#050505"/>
  <line x1="0" y1="0" x2="400" y2="0" stroke="#ff2233" stroke-width="2"/>
  <line x1="0" y1="220" x2="400" y2="220" stroke="#ff2233" stroke-width="2"/>
  <!-- Grid background -->
  <g stroke="rgba(255,34,51,0.06)" stroke-width="1">
    <line x1="0" y1="44" x2="400" y2="44"/><line x1="0" y1="88" x2="400" y2="88"/>
    <line x1="0" y1="132" x2="400" y2="132"/><line x1="0" y1="176" x2="400" y2="176"/>
    <line x1="80" y1="0" x2="80" y2="220"/><line x1="160" y1="0" x2="160" y2="220"/>
    <line x1="240" y1="0" x2="240" y2="220"/><line x1="320" y1="0" x2="320" y2="220"/>
  </g>
  <!-- Sol con rayos -->
  <circle cx="200" cy="110" r="55" fill="none" stroke="#ff6600" stroke-width="3" opacity="0.4"/>
  <circle cx="200" cy="110" r="40" fill="#ff4400" opacity="0.7"/>
  <circle cx="200" cy="110" r="28" fill="#ff6600"/>
  <circle cx="200" cy="110" r="18" fill="#ffaa00"/>
  <!-- Rayos del sol -->
  <g stroke="#ff6600" stroke-width="2.5" stroke-linecap="round">
    <line x1="200" y1="42" x2="200" y2="30"/><line x1="200" y1="178" x2="200" y2="190"/>
    <line x1="132" y1="110" x2="120" y2="110"/><line x1="268" y1="110" x2="280" y2="110"/>
    <line x1="152" y1="62" x2="144" y2="54"/><line x1="248" y1="158" x2="256" y2="166"/>
    <line x1="248" y1="62" x2="256" y2="54"/><line x1="152" y1="158" x2="144" y2="166"/>
  </g>
  <!-- Texto -->
  <text x="200" y="205" text-anchor="middle" font-family="monospace" font-size="11" fill="#ff6600" letter-spacing="4">VERANO</text>
</svg>
